<?xml version="1.0" encoding="UTF-8"?><svg xmlns="http://www.w3.org/2000/svg" xmlns:xlink="http://www.w3.org/1999/xlink" stroke-dasharray="none" shape-rendering="auto" font-family="'Dialog'" width="954" text-rendering="auto" fill-opacity="1" contentScriptType="text/ecmascript" color-interpolation="auto" color-rendering="auto" preserveAspectRatio="xMidYMid meet" font-size="12" fill="black" stroke="black" image-rendering="auto" stroke-miterlimit="10" zoomAndPan="magnify" version="1.0" stroke-linecap="square" stroke-linejoin="miter" contentStyleType="text/css" font-style="normal" height="424" stroke-width="1" stroke-dashoffset="0" font-weight="normal" stroke-opacity="1">
    <!--Generated by the Batik Graphics2D SVG Generator-->
    <defs id="genericDefs"/>
    <g>
        <defs id="defs1">
            <clipPath clipPathUnits="userSpaceOnUse" id="clipPath1">
                <path d="M37 25 L917 25 L917 387 L37 387 L37 25 Z"/>
            </clipPath>
            <clipPath clipPathUnits="userSpaceOnUse" id="clipPath2">
                <path d="M-1 -1 L955 -1 L955 425 L-1 425 L-1 -1 Z"/>
            </clipPath>
            <clipPath clipPathUnits="userSpaceOnUse" id="clipPath3">
                <path d="M37 385 L917 385 L917 425 L37 425 L37 385 Z"/>
            </clipPath>
        </defs>
        <g font-size="15" fill="white" text-rendering="geometricPrecision" font-family="'Ubuntu'" stroke-linejoin="round" stroke="white" stroke-width="0" stroke-miterlimit="0">
            <rect x="38" y="26" clip-path="url(#clipPath1)" width="878" height="360" stroke="none"/>
        </g>
        <g stroke-linecap="butt" font-size="15" fill="rgb(204,204,204)" text-rendering="geometricPrecision" font-family="'Ubuntu'" stroke-dasharray="3,3" stroke="rgb(204,204,204)">
            <line clip-path="url(#clipPath1)" fill="none" x1="38" x2="916" y1="386" y2="386"/>
            <line clip-path="url(#clipPath1)" fill="none" x1="38" x2="916" y1="301" y2="301"/>
            <line clip-path="url(#clipPath1)" fill="none" x1="38" x2="916" y1="217" y2="217"/>
            <line clip-path="url(#clipPath1)" fill="none" x1="38" x2="916" y1="133" y2="133"/>
            <line clip-path="url(#clipPath1)" fill="none" x1="38" x2="916" y1="48" y2="48"/>
            <rect x="766" y="221" clip-path="url(#clipPath1)" fill="rgb(0,0,139)" width="74" height="164" stroke="none"/>
            <rect x="766" y="221" clip-path="url(#clipPath1)" fill="none" width="74" stroke-dasharray="none" height="164"/>
            <rect x="673" y="221" clip-path="url(#clipPath1)" fill="rgb(0,0,139)" width="74" stroke-dasharray="none" height="164" stroke="none"/>
            <rect x="673" y="221" clip-path="url(#clipPath1)" fill="none" width="74" stroke-dasharray="none" height="164"/>
            <rect x="579" y="58" clip-path="url(#clipPath1)" fill="rgb(0,0,139)" width="74" stroke-dasharray="none" height="327" stroke="none"/>
            <rect x="579" y="58" clip-path="url(#clipPath1)" fill="none" width="74" stroke-dasharray="none" height="327"/>
            <rect x="486" y="223" clip-path="url(#clipPath1)" fill="rgb(0,0,139)" width="74" stroke-dasharray="none" height="162" stroke="none"/>
            <rect x="486" y="223" clip-path="url(#clipPath1)" fill="none" width="74" stroke-dasharray="none" height="162"/>
            <rect x="392" y="223" clip-path="url(#clipPath1)" fill="rgb(0,0,139)" width="74" stroke-dasharray="none" height="162" stroke="none"/>
            <rect x="392" y="223" clip-path="url(#clipPath1)" fill="none" width="74" stroke-dasharray="none" height="162"/>
            <rect x="299" y="221" clip-path="url(#clipPath1)" fill="rgb(0,0,139)" width="74" stroke-dasharray="none" height="164" stroke="none"/>
            <rect x="299" y="221" clip-path="url(#clipPath1)" fill="none" width="74" stroke-dasharray="none" height="164"/>
            <rect x="206" y="386" clip-path="url(#clipPath1)" fill="rgb(0,0,139)" width="74" stroke-dasharray="none" height="1" stroke="none"/>
            <rect x="112" y="220" clip-path="url(#clipPath1)" fill="rgb(0,0,139)" width="74" stroke-dasharray="none" height="165" stroke="none"/>
            <rect x="112" y="220" clip-path="url(#clipPath1)" fill="none" width="74" stroke-dasharray="none" height="165"/>
            <rect x="38" y="26" clip-path="url(#clipPath2)" fill="none" width="878" stroke-dasharray="none" height="360" stroke="black"/>
            <line clip-path="url(#clipPath2)" fill="none" x1="39" x2="915" y1="386" y2="386" stroke-dasharray="none"/>
        </g>
        <g text-rendering="geometricPrecision" font-size="13" stroke-linecap="butt">
            <text xml:space="preserve" x="339" y="13" clip-path="url(#clipPath2)" stroke="none">Distribucion de los paquetes enrutados - caso 1</text>
            <line clip-path="url(#clipPath2)" fill="none" x1="36" x2="36" y1="26" y2="386"/>
            <line clip-path="url(#clipPath2)" fill="none" x1="918" x2="918" y1="26" y2="386"/>
            <line clip-path="url(#clipPath2)" fill="none" x1="32" x2="36" y1="386" y2="386"/>
            <line clip-path="url(#clipPath2)" fill="none" x1="922" x2="918" y1="386" y2="386"/>
            <text x="26" font-size="11" y="391" clip-path="url(#clipPath2)" stroke="none" xml:space="preserve">0</text>
            <text x="925" font-size="11" y="391" clip-path="url(#clipPath2)" stroke="none" xml:space="preserve">0</text>
            <line clip-path="url(#clipPath2)" fill="none" x1="34" x2="36" y1="369" y2="369"/>
            <line clip-path="url(#clipPath2)" fill="none" x1="920" x2="918" y1="369" y2="369"/>
            <line clip-path="url(#clipPath2)" fill="none" x1="34" x2="36" y1="352" y2="352"/>
            <line clip-path="url(#clipPath2)" fill="none" x1="920" x2="918" y1="352" y2="352"/>
            <line clip-path="url(#clipPath2)" fill="none" x1="34" x2="36" y1="335" y2="335"/>
            <line clip-path="url(#clipPath2)" fill="none" x1="920" x2="918" y1="335" y2="335"/>
            <line clip-path="url(#clipPath2)" fill="none" x1="34" x2="36" y1="318" y2="318"/>
            <line clip-path="url(#clipPath2)" fill="none" x1="920" x2="918" y1="318" y2="318"/>
            <line clip-path="url(#clipPath2)" fill="none" x1="32" x2="36" y1="301" y2="301"/>
            <line clip-path="url(#clipPath2)" fill="none" x1="922" x2="918" y1="301" y2="301"/>
            <text x="11" font-size="11" y="306" clip-path="url(#clipPath2)" stroke="none" xml:space="preserve">1000</text>
            <text x="925" font-size="11" y="306" clip-path="url(#clipPath2)" stroke="none" xml:space="preserve">1000</text>
            <line clip-path="url(#clipPath2)" fill="none" x1="34" x2="36" y1="284" y2="284"/>
            <line clip-path="url(#clipPath2)" fill="none" x1="920" x2="918" y1="284" y2="284"/>
            <line clip-path="url(#clipPath2)" fill="none" x1="34" x2="36" y1="267" y2="267"/>
            <line clip-path="url(#clipPath2)" fill="none" x1="920" x2="918" y1="267" y2="267"/>
            <line clip-path="url(#clipPath2)" fill="none" x1="34" x2="36" y1="251" y2="251"/>
            <line clip-path="url(#clipPath2)" fill="none" x1="920" x2="918" y1="251" y2="251"/>
            <line clip-path="url(#clipPath2)" fill="none" x1="34" x2="36" y1="234" y2="234"/>
            <line clip-path="url(#clipPath2)" fill="none" x1="920" x2="918" y1="234" y2="234"/>
            <line clip-path="url(#clipPath2)" fill="none" x1="32" x2="36" y1="217" y2="217"/>
            <line clip-path="url(#clipPath2)" fill="none" x1="922" x2="918" y1="217" y2="217"/>
            <text x="11" font-size="11" y="222" clip-path="url(#clipPath2)" stroke="none" xml:space="preserve">2000</text>
            <text x="925" font-size="11" y="222" clip-path="url(#clipPath2)" stroke="none" xml:space="preserve">2000</text>
            <line clip-path="url(#clipPath2)" fill="none" x1="34" x2="36" y1="200" y2="200"/>
            <line clip-path="url(#clipPath2)" fill="none" x1="920" x2="918" y1="200" y2="200"/>
            <line clip-path="url(#clipPath2)" fill="none" x1="34" x2="36" y1="183" y2="183"/>
            <line clip-path="url(#clipPath2)" fill="none" x1="920" x2="918" y1="183" y2="183"/>
            <line clip-path="url(#clipPath2)" fill="none" x1="34" x2="36" y1="166" y2="166"/>
            <line clip-path="url(#clipPath2)" fill="none" x1="920" x2="918" y1="166" y2="166"/>
            <line clip-path="url(#clipPath2)" fill="none" x1="34" x2="36" y1="149" y2="149"/>
            <line clip-path="url(#clipPath2)" fill="none" x1="920" x2="918" y1="149" y2="149"/>
            <line clip-path="url(#clipPath2)" fill="none" x1="32" x2="36" y1="133" y2="133"/>
            <line clip-path="url(#clipPath2)" fill="none" x1="922" x2="918" y1="133" y2="133"/>
            <text x="11" font-size="11" y="138" clip-path="url(#clipPath2)" stroke="none" xml:space="preserve">3000</text>
            <text x="925" font-size="11" y="138" clip-path="url(#clipPath2)" stroke="none" xml:space="preserve">3000</text>
            <line clip-path="url(#clipPath2)" fill="none" x1="34" x2="36" y1="116" y2="116"/>
            <line clip-path="url(#clipPath2)" fill="none" x1="920" x2="918" y1="116" y2="116"/>
            <line clip-path="url(#clipPath2)" fill="none" x1="34" x2="36" y1="99" y2="99"/>
            <line clip-path="url(#clipPath2)" fill="none" x1="920" x2="918" y1="99" y2="99"/>
            <line clip-path="url(#clipPath2)" fill="none" x1="34" x2="36" y1="82" y2="82"/>
            <line clip-path="url(#clipPath2)" fill="none" x1="920" x2="918" y1="82" y2="82"/>
            <line clip-path="url(#clipPath2)" fill="none" x1="34" x2="36" y1="65" y2="65"/>
            <line clip-path="url(#clipPath2)" fill="none" x1="920" x2="918" y1="65" y2="65"/>
            <line clip-path="url(#clipPath2)" fill="none" x1="32" x2="36" y1="48" y2="48"/>
            <line clip-path="url(#clipPath2)" fill="none" x1="922" x2="918" y1="48" y2="48"/>
            <text x="11" font-size="11" y="53" clip-path="url(#clipPath2)" stroke="none" xml:space="preserve">4000</text>
            <text x="925" font-size="11" y="53" clip-path="url(#clipPath2)" stroke="none" xml:space="preserve">4000</text>
            <line clip-path="url(#clipPath2)" fill="none" x1="34" x2="36" y1="31" y2="31"/>
            <line clip-path="url(#clipPath2)" fill="none" x1="920" x2="918" y1="31" y2="31"/>
            <line clip-path="url(#clipPath3)" fill="none" x1="112" x2="186" y1="390" y2="390"/>
            <line clip-path="url(#clipPath3)" fill="none" x1="206" x2="280" y1="390" y2="390"/>
            <line clip-path="url(#clipPath3)" fill="none" x1="299" x2="373" y1="390" y2="390"/>
            <line clip-path="url(#clipPath3)" fill="none" x1="392" x2="466" y1="390" y2="390"/>
            <line clip-path="url(#clipPath3)" fill="none" x1="486" x2="560" y1="390" y2="390"/>
            <line clip-path="url(#clipPath3)" fill="none" x1="579" x2="653" y1="390" y2="390"/>
            <line clip-path="url(#clipPath3)" fill="none" x1="673" x2="747" y1="390" y2="390"/>
            <line clip-path="url(#clipPath3)" fill="none" x1="766" x2="840" y1="390" y2="390"/>
            <text x="112" font-size="11" y="402" clip-path="url(#clipPath3)" stroke="none" xml:space="preserve">Network.node[0].net</text>
            <text x="206" font-size="11" y="402" clip-path="url(#clipPath3)" stroke="none" xml:space="preserve">Network.node[1].net</text>
            <text x="299" font-size="11" y="402" clip-path="url(#clipPath3)" stroke="none" xml:space="preserve">Network.node[2].net</text>
            <text x="392" font-size="11" y="402" clip-path="url(#clipPath3)" stroke="none" xml:space="preserve">Network.node[3].net</text>
            <text x="486" font-size="11" y="402" clip-path="url(#clipPath3)" stroke="none" xml:space="preserve">Network.node[4].net</text>
            <text x="579" font-size="11" y="402" clip-path="url(#clipPath3)" stroke="none" xml:space="preserve">Network.node[5].net</text>
            <text x="673" font-size="11" y="402" clip-path="url(#clipPath3)" stroke="none" xml:space="preserve">Network.node[6].net</text>
            <text x="766" font-size="11" y="402" clip-path="url(#clipPath3)" stroke="none" xml:space="preserve">Network.node[7].net</text>
        </g>
    </g>
</svg>
